<svg width="22" height="16" viewBox="0 0 22 16" fill="none" xmlns="http://www.w3.org/2000/svg">
<path d="M0 0.46875C0 0.209866 0.209866 0 0.46875 0H4.375H20.7813C21.0401 0 21.25 0.209866 21.25 0.46875V5.9375C21.25 6.19638 21.0401 6.40625 20.7813 6.40625H19.2188C18.9599 6.40625 18.75 6.19638 18.75 5.9375C18.75 5.67862 18.9599 5.46875 19.2188 5.46875H20.3125V0.9375H4.375H0.9375V5.46875H2.03125C2.29013 5.46875 2.5 5.67862 2.5 5.9375C2.5 6.19638 2.29013 6.40625 2.03125 6.40625H0.46875C0.209866 6.40625 0 6.19638 0 5.9375V0.46875ZM4.52791 2.34975C4.78348 2.39103 4.95719 2.63168 4.91591 2.88725L3.36305 12.5H10.625H17.887L16.3341 2.88725C16.2929 2.63168 16.4666 2.39103 16.7221 2.34975C16.9777 2.30846 17.2184 2.48218 17.2596 2.73775L18.9003 12.894C18.9222 13.0296 18.8835 13.168 18.7944 13.2726C18.7054 13.3772 18.5749 13.4375 18.4375 13.4375H10.625H2.8125C2.67512 13.4375 2.54465 13.3772 2.45559 13.2726C2.36653 13.168 2.32784 13.0296 2.34975 12.894L3.9904 2.73775C4.03169 2.48218 4.27234 2.30846 4.52791 2.34975ZM4.375 14.4531C4.11612 14.4531 3.90625 14.663 3.90625 14.9219C3.90625 15.1808 4.11612 15.3906 4.375 15.3906H10.625H12.1875H16.875C17.1339 15.3906 17.3438 15.1808 17.3438 14.9219C17.3438 14.663 17.1339 14.4531 16.875 14.4531H12.1875H10.625H4.375ZM10.1563 9.10222L7.83154 6.77742C7.64848 6.59436 7.35168 6.59436 7.16862 6.77742C6.98556 6.96048 6.98556 7.25728 7.16862 7.44033L10.2929 10.5646C10.3778 10.6499 10.4953 10.7026 10.6251 10.7026C10.7548 10.7026 10.8722 10.65 10.957 10.5648L14.0815 7.44034C14.2646 7.25728 14.2646 6.96048 14.0815 6.77742C13.8985 6.59436 13.6017 6.59436 13.4186 6.77742L11.0938 9.10222L11.0938 3.51512C11.0938 3.25624 10.884 3.04637 10.6251 3.04637C10.3662 3.04637 10.1563 3.25624 10.1563 3.51512L10.1563 9.10222Z" fill-rule="evenodd" clip-rule="evenodd" fill="#0097FD"/>
</svg>
